<?xml version="1.0" encoding="UTF-8"?>
<svg id="Layer_1" data-name="Layer 1" xmlns="http://www.w3.org/2000/svg" viewBox="0 0 64 64">
  <defs>
    <style>
      .cls-1 {
        fill: #0065f3;
      }
    </style>
  </defs>
  <path class="cls-1" d="M36.16,43.52v7.95c0,.57.37,1.08.91,1.27,6.42,2.23,10.31,7.9,18.61,6.6,1.67-.26,4.82-.8,6.47-3.41,1.79-2.82.7-6.25.42-7.06l-10.13-21.24c-.4-.83-1.22-1.4-2.14-1.43-.19,0-.38-.01-.57-.01-10.06,0-13.57,7.88-13.57,17.33Z"/>
  <path class="cls-1" d="M46.22,17.34s0,0,.01,0c.6,0,1-.62.74-1.16l-1.54-3.24c-5.42-11.37-21.62-11.35-27.01.04L1.42,48.89c-.31.93-1.31,4.29.43,7.05,1.61,2.55,4.62,3.13,6.19,3.41,7.13,1.26,11.16-3.04,16.48-5.64.6-.29.98-.9.98-1.56v-9.83c0-20.12,12.6-24.96,20.72-24.96Z"/>
</svg>